<?xml version="1.0" standalone="no"?><!DOCTYPE svg PUBLIC "-//W3C//DTD SVG 1.1//EN" "http://www.w3.org/Graphics/SVG/1.1/DTD/svg11.dtd"><svg t="1648172703432" class="icon" viewBox="0 0 1024 1024" version="1.1" xmlns="http://www.w3.org/2000/svg" p-id="4129" xmlns:xlink="http://www.w3.org/1999/xlink" width="200" height="200"><defs><style type="text/css"></style></defs><path d="M661.333333 618.666667a275.2 275.2 0 0 1 256 170.666666 277.333333 277.333333 0 0 1-512 0 275.2 275.2 0 0 1 256-170.666666z m128-298.666667v237.226667a366.506667 366.506667 0 0 0-128-23.893334 358.4 358.4 0 0 0-335.36 224.426667l-12.373333 31.573333 12.373333 32A394.24 394.24 0 0 0 384 917.333333H277.333333v-597.333333h512z m-597.333333 0v597.333333h-85.333333v-597.333333h85.333333z m469.333333 362.666667a106.666667 106.666667 0 1 0 0 213.333333 106.666667 106.666667 0 0 0 0-213.333333z m0 64a42.666667 42.666667 0 1 1 0 85.333333 42.666667 42.666667 0 0 1 0-85.333333z m128-682.666667v170.666667h-682.666666v-170.666667h682.666666z" p-id="4130"></path></svg>